<?xml version="1.0" encoding="UTF-8"?>
<svg xmlns="http://www.w3.org/2000/svg" viewBox="0 0 640 512" fill="#F4511E">
  <path d="M624 352h-16V243.9c0-12.7-5.1-24.9-14.1-33.9L494 110.1c-9-9-21.2-14.1-33.9-14.1H416V48c0-26.5-21.5-48-48-48H112C85.5 0 64 21.5 64 48v48H8c-4.4 0-8 3.6-8 8v16c0 4.4 3.6 8 8 8h240c4.4 0 8-3.6 8-8v-16c0-4.4-3.6-8-8-8h-24V48c0-8.8 7.2-16 16-16h256c8.8 0 16 7.2 16 16v48h-24c-4.4 0-8 3.6-8 8v16c0 4.4 3.6 8 8 8h56c13.2 0 24 10.8 24 24v80h-56c-4.4 0-8 3.6-8 8v16c0 4.4 3.6 8 8 8h56v64h-56c-4.4 0-8 3.6-8 8v16c0 4.4 3.6 8 8 8h56c0 53-43 96-96 96s-96-43-96-96h-96c0 53-43 96-96 96s-96-43-96-96H32c-17.7 0-32-14.3-32-32s14.3-32 32-32V288H16c-8.8 0-16-7.2-16-16v-32c0-8.8 7.2-16 16-16h16v-32c-17.7 0-32-14.3-32-32s14.3-32 32-32h64v-32H8c-4.4 0-8 3.6-8 8v16c0 4.4 3.6 8 8 8h88v113.7c-2.5.9-4.9 2.1-7.1 3.5L52.3 302c-14.9 9.9-21.2 28.7-14.9 45.7.9 2.5 2.1 4.9 3.5 7.1l48 72c7.7 11.5 20.6 18.4 34.3 18.2.7 0 1.3 0 2-.1h14.2c25.8 0 47.5-18.8 51.4-44.3.5-3.4.7-6.8.6-10.3.2-3.9-.1-7.9-.8-11.7-4.9-25-27.1-42.9-52.4-42.6H74.7l-24-36 24-36h65.5c7.2 0 13.8 2.9 18.7 8 4.9 5.1 7.4 11.9 7.1 18.9v82.4c0 10.7 5.3 20.8 14.2 26.8 15.1 10.2 35.5 7.1 47.4-7.1l32-40c11.3-14.2 8.3-34.8-7-45.1-16.5-11.1-38.6-7-50.6 8.3l-15.5 19.3c-5.4-3.7-10.4-8.1-14.8-13.2-5.5-6.3-9-14.1-10-22.6v-33.3c0-30.6-24.8-55.3-55.4-55.3H97.8V96c0-17.7 14.3-32 32-32H384c17.7 0 32 14.3 32 32v96h-10.7c-32.7 0-58.9 27.6-56.7 60.2 1.4 21.3 15.1 39.4 34.6 47.6l-11.6 14.6c-8.9 11.2-6.9 27.6 4.4 36.4l22.8 18c11.3 8.9 27.7 7 36.6-4.3l18-22.5c.3-.4.6-.8.9-1.3 5.8-9.7 4.2-22.1-3.8-29.9l-22.8-18c-5.8-4.6-13-6.2-19.8-5.2-2.4.4-4.8 1.1-6.9 2.2 4.5-12.8 15.9-22.2 29.8-23 21.7-1.3 40.4 15.5 40.6 37.2V336H448v16h95.2c.5 3.9.8 7.9.8 11.9 0 52.8-43 96.1-96 96.1-53 0-96-43.2-96-96v-.2c0-4 .3-8 .8-11.8H415.8L384 416h-95.2c.5-3.9.8-7.9.8-11.9 0-52.8-43-96.1-96-96.1-53 0-96 43.2-96 96v.2c0 4 .3 8 .8 11.8H16c-8.8 0-16-7.2-16-16s7.2-16 16-16h16V352h16c8.8 0 16-7.2 16-16s-7.2-16-16-16h-16v-48h576V352zm-288 0c-26.5 0-48 21.5-48 48s21.5 48 48 48 48-21.5 48-48-21.5-48-48-48zm256 0c-26.5 0-48 21.5-48 48s21.5 48 48 48 48-21.5 48-48-21.5-48-48-48z"/>
</svg>
