<?xml version="1.0" encoding="UTF-8"?>
<svg xmlns="http://www.w3.org/2000/svg" viewBox="0 0 512 512" fill="#00897B">
  <path d="M512 194.8c0 101.3-82.4 183.8-183.8 183.8-101.7 0-184.4-82.4-184.4-183.8 0-101.6 82.7-184.3 184.4-184.3C429.6 10.5 512 93.2 512 194.8zM0 501.5h90v-27h-75v-15h75v-27H30v-15h60v-15H0v99zm107-87.3c-7.5 12-13.5 16.5-21 16.5-15 0-24-12-24-33 0-19.5 9-34.5 24-34.5 9 0 14.7 4.5 21 16.5l25.5-15c-15-25.5-33-33-49.5-33-42 0-60 39-60 67.5 0 30 18 63 60 63 16.5 0 33-7.5 49.5-33l-25.5-15zm151.5-15v-33h30v33h30v-87h-30v30h-30v-30h-30v87h30zm129-33v-18h-24v18h24z"/>
</svg>
