<?xml version="1.0" encoding="UTF-8"?>
<svg xmlns="http://www.w3.org/2000/svg" viewBox="0 0 640 512" fill="#FF8F00">
  <path d="M368 0c26.5 0 48 21.5 48 48v48h50.7c17 0 32.4 6.7 44.3 17.3l26.5 23.1c16.8 14.7 18.6 40.1 3.9 57-13.4 15.3-36.3 17.3-51.9 6.7L448 160h-29.4l8.7 8.7c6.2 6.2 6.2 16.4 0 22.6L384 234.7l58.6 58.6c6 6 9.4 14.1 9.4 22.6 0 17.7-14.3 32-32 32s-32-14.3-32-32c0-8.5 3.4-16.6 9.4-22.6L356 251.4 318.7 288H192v64h48c8.8 0 16 7.2 16 16v16c0 8.8-7.2 16-16 16H112c-8.8 0-16-7.2-16-16v-16c0-8.8 7.2-16 16-16h48v-87c0-14.7 11.9-26.7 26.7-26.7h138.6l32-32-8.7-8.7c-6.2-6.2-6.2-16.4 0-22.6l42.7-42.7c-11.5-23.9-35.7-39.7-63.7-39.4L288 96H128v16c0 8.8-7.2 16-16 16H96c-8.8 0-16-7.2-16-16V48c0-26.5 21.5-48 48-48h240zM240 400c0 8.8-7.2 16-16 16H80c-8.8 0-16-7.2-16-16s7.2-16 16-16h144c8.8 0 16 7.2 16 16zM16 96c8.8 0 16 7.2 16 16v160c0 8.8-7.2 16-16 16s-16-7.2-16-16V112c0-8.8 7.2-16 16-16zm608 0c8.8 0 16 7.2 16 16v160c0 8.8-7.2 16-16 16s-16-7.2-16-16V112c0-8.8 7.2-16 16-16z"/>
</svg>
