<svg xmlns="http://www.w3.org/2000/svg" xmlns:xlink="http://www.w3.org/1999/xlink" width="500" zoomAndPan="magnify" viewBox="0 0 375 374.999991" height="500" preserveAspectRatio="xMidYMid meet" version="1.0"><defs><clipPath id="7c4b0038cb"><path d="M 76 25.515625 L 297 25.515625 L 297 349.515625 L 76 349.515625 Z M 76 25.515625 " clip-rule="nonzero"/></clipPath></defs><g clip-path="url(#7c4b0038cb)"><path fill="#4ea66f" d="M 281.398438 184.398438 L 267.375 160.105469 C 268.65625 167.523438 269.457031 174.894531 269.757812 182.199219 C 270.917969 210.390625 264.78125 237.148438 251.53125 261.710938 C 235.664062 291.109375 209.851562 316.421875 176.890625 334.894531 C 176.824219 334.933594 176.757812 334.972656 176.691406 335.011719 C 170.03125 338.726562 172.269531 348.855469 179.882812 349.292969 C 180.800781 349.347656 181.71875 349.386719 182.640625 349.417969 C 183.238281 349.4375 183.828125 349.453125 184.425781 349.457031 C 185.523438 349.472656 186.609375 349.472656 187.714844 349.457031 C 188.304688 349.453125 188.902344 349.4375 189.492188 349.417969 C 226.261719 348.222656 261.589844 328.632812 281.335938 294.433594 L 283.171875 291.253906 C 300.445312 258.84375 301.101562 218.542969 281.398438 184.398438 Z M 235.710938 123.792969 L 220.734375 91.503906 C 222.414062 104.996094 221.285156 118.390625 217.371094 131.890625 C 210.867188 154.316406 197.957031 173.5 185.464844 192.054688 C 177.351562 204.113281 169.78125 215.363281 164.695312 226.410156 C 147.078125 264.691406 198.339844 296.246094 224.773438 263.429688 C 227.191406 260.425781 229.46875 257.320312 231.582031 254.121094 C 255.84375 217.433594 257.257812 172.410156 235.710938 123.792969 Z M 130.585938 334.441406 C 121.378906 328.367188 100.726562 311.621094 90.808594 294.433594 L 88.878906 291.097656 C 76.085938 267.003906 73.894531 230.5625 80.660156 205.398438 C 82.984375 196.746094 86.785156 189.753906 90.746094 184.398438 C 186.070312 55.488281 182.484375 25.523438 182.484375 25.523438 C 218.144531 86.621094 192.144531 133.90625 166.988281 179.652344 C 153.230469 204.671875 140.226562 228.304688 138.894531 252.519531 C 138.15625 265.914062 141.015625 278.222656 147.644531 290.132812 C 148.960938 292.5 150.242188 294.972656 152.027344 297.15625 C 174.625 324.800781 137.320312 338.886719 130.585938 334.441406 " fill-opacity="1" fill-rule="nonzero"/></g></svg>